# xmcd CD database file
#
# Track frame offsets:
#	150
#	26676
#	43125
#	58445
#	74060
#	93298
#	119309
#	142592
#	158291
#	172230
#	190252
#
# Disc length: 2813 seconds
#
# Revision: 0
# Processed by: cddbd v1.5.2PL0 Copyright (c) Steve Scherf et al.
# Submitted via: CDex 1.70beta2
#
DISCID=9a0afb0b
DTITLE=Maravilla Yunquena - Maravilla Yunquena
DYEAR=2014
DGENRE=Salsa
TTITLE0=A Baracoa Me Voy
TTITLE1=Descripcion De Un Sueno
TTITLE2=Alumbrame
TTITLE3=Nengon
TTITLE4=Loma De Belen
TTITLE5=Cuando El Rio Suena
TTITLE6=Che Commandante
TTITLE7=Cabaret
TTITLE8=Kiriba
TTITLE9=El Pobre Rafael
TTITLE10=Caminando
EXTD=YEAR: 2014
EXTT0=
EXTT1=
EXTT2=
EXTT3=
EXTT4=
EXTT5=
EXTT6=
EXTT7=
EXTT8=
EXTT9=
EXTT10=
PLAYORDER=
